<?xml version="1.0" encoding="UTF-8"?>
<svg version="1.1" xmlns="http://www.w3.org/2000/svg" width="128" height="128">
<path d="M0 0 C0 22.77 0 45.54 0 69 C-11.25507846 74.62753923 -11.25507846 74.62753923 -15.50976562 76.32763672 C-16.94044373 76.9025032 -16.94044373 76.9025032 -18.40002441 77.48898315 C-19.39207886 77.88191559 -20.3841333 78.27484802 -21.40625 78.6796875 C-22.45276733 79.09670929 -23.49928467 79.51373108 -24.57751465 79.94338989 C-26.76820722 80.81450479 -28.9598303 81.68328299 -31.15234375 82.54980469 C-34.52185464 83.88365132 -37.88595867 85.23055263 -41.25 86.578125 C-43.38510141 87.42527414 -45.52050727 88.27165648 -47.65625 89.1171875 C-48.66449829 89.52226532 -49.67274658 89.92734314 -50.71154785 90.34469604 C-51.64011597 90.7090274 -52.56868408 91.07335876 -53.52539062 91.44873047 C-54.3435022 91.77340302 -55.16161377 92.09807556 -56.0045166 92.43258667 C-58 93 -58 93 -60 92 C-60 69.56 -60 47.12 -60 24 C-50.99970951 19.49985475 -50.99970951 19.49985475 -47.22387695 17.92529297 C-46.37972733 17.57167694 -45.5355777 17.21806091 -44.66584778 16.85372925 C-43.78225082 16.48692047 -42.89865387 16.12011169 -41.98828125 15.7421875 C-41.05702927 15.35306183 -40.12577728 14.96393616 -39.16630554 14.5630188 C-36.21612103 13.33106206 -33.26432605 12.10301754 -30.3125 10.875 C-28.3195579 10.04321683 -26.32671837 9.21118786 -24.33398438 8.37890625 C-14.41221561 4.23827925 -14.41221561 4.23827925 -11.04556274 2.85003662 C-9.40566872 2.16857624 -7.77565058 1.4633707 -6.14916992 0.75048828 C-4 0 -4 0 0 0 Z " fill="#303030ff" transform="translate(128,35)"/>
<path d="M0 0 C3.98060978 0.49294244 7.58623394 1.00027259 11.27612305 2.59472656 C12.03769211 2.91886536 12.79926117 3.24300415 13.58390808 3.57696533 C14.78567436 4.10347687 14.78567436 4.10347687 16.01171875 4.640625 C16.86119583 5.00468445 17.71067291 5.3687439 18.58589172 5.74383545 C21.28989727 6.90468544 23.98874369 8.07700562 26.6875 9.25 C28.48078023 10.02292371 30.27439734 10.79506633 32.06835938 11.56640625 C34.67649406 12.688098 37.28415411 13.81079166 39.88986206 14.93811035 C45.56595937 17.39326399 51.26221026 19.78733948 56.99145508 22.11621094 C59 23 59 23 60 24 C60.0942174 26.11681317 60.11742761 28.23680758 60.11352539 30.35571289 C60.11367142 31.01910172 60.11381744 31.68249054 60.1139679 32.36598206 C60.11326881 34.56823956 60.10547665 36.77041345 60.09765625 38.97265625 C60.09579206 40.49580336 60.09436816 42.01895107 60.09336853 43.542099 C60.08954346 47.55837651 60.07971328 51.57461808 60.06866455 55.59088135 C60.05845019 59.68623366 60.05387086 63.78159176 60.04882812 67.87695312 C60.038091 75.91798528 60.02101472 83.95898817 60 92 C58 93 58 93 55.60227966 92.2538147 C54.59713821 91.84601776 53.59199677 91.43822083 52.55639648 91.01806641 C51.41859238 90.56074127 50.28078827 90.10341614 49.10850525 89.63223267 C47.86260312 89.12224934 46.61680167 88.61202003 45.37109375 88.1015625 C44.09863801 87.58625964 42.82593459 87.07156802 41.55299377 86.5574646 C38.88372947 85.47759116 36.21660086 84.39265748 33.55102539 83.30371094 C30.12824691 81.90551844 26.70191207 80.51632158 23.27413845 79.13042641 C20.64561529 78.0672506 18.0182801 77.00116769 15.39137459 75.93400192 C14.12803593 75.42078287 12.86449998 74.90804919 11.60076714 74.39580154 C9.83748593 73.68013428 8.07580522 72.96052744 6.31420898 72.24072266 C4.8076902 71.62664047 4.8076902 71.62664047 3.27073669 71.00015259 C1 70 1 70 0 69 C-0.09425595 66.85256451 -0.11742648 64.70198974 -0.11352539 62.55249023 C-0.11367142 61.87934784 -0.11381744 61.20620544 -0.1139679 60.51266479 C-0.11326878 58.27794216 -0.10547652 56.0433019 -0.09765625 53.80859375 C-0.09579206 52.26302638 -0.09436816 50.71745843 -0.09336853 49.17189026 C-0.0895434 45.09642923 -0.07971317 41.02100363 -0.06866455 36.94555664 C-0.05845032 32.78988118 -0.05387089 28.63420001 -0.04882812 24.47851562 C-0.03809089 16.31899413 -0.02101454 8.15950147 0 0 Z " fill="#303030ff" transform="translate(0,35)"/>
<path d="M0 0 C0.71662811 0.3118927 1.43325623 0.6237854 2.17160034 0.94512939 C4.40259002 1.94362353 6.60398979 2.99119074 8.8046875 4.0546875 C9.60931427 4.4381131 10.41394104 4.8215387 11.24295044 5.21658325 C13.7893476 6.43114698 16.33227549 7.65276901 18.875 8.875 C22.2257314 10.47830352 25.57774715 12.07891339 28.9296875 13.6796875 C29.72582458 14.06058533 30.52196167 14.44148315 31.34222412 14.83392334 C37.1956351 17.63021097 43.07477918 20.3585963 49 23 C48.94287109 24.78808594 48.94287109 24.78808594 48 27 C45.62503783 28.33795286 43.42554351 29.3786998 40.9140625 30.390625 C39.82684654 30.8498233 39.82684654 30.8498233 38.71766663 31.31829834 C36.35932602 32.31033406 33.99273147 33.28061685 31.625 34.25 C30.01357136 34.92065709 28.40264934 35.59253278 26.79223633 36.265625 C23.62827476 37.5865156 20.46130835 38.89981762 17.29248047 40.20898438 C13.72552065 41.68869038 10.18665869 43.22272267 6.66015625 44.796875 C5.79503418 45.1794043 4.92991211 45.56193359 4.03857422 45.95605469 C2.52384158 46.62864002 1.01333776 47.31087293 -0.49169922 48.00488281 C-5.63514898 50.24641558 -8.8675176 50.11862632 -14.12312317 48.24182129 C-16.64531133 47.2440131 -19.1439543 46.20066364 -21.640625 45.140625 C-22.56284851 44.75436951 -23.48507202 44.36811401 -24.4352417 43.97015381 C-26.38308066 43.15275527 -28.32961032 42.33223057 -30.27490234 41.50878906 C-33.22313829 40.26136542 -36.17559512 39.02441514 -39.12890625 37.7890625 C-41.02890677 36.99020366 -42.92865456 36.19074341 -44.828125 35.390625 C-45.69826233 35.02584045 -46.56839966 34.66105591 -47.46490479 34.28521729 C-53.43277491 31.75284339 -59.23302287 28.9605265 -65 26 C-65 25.01 -65 24.02 -65 23 C-59.91920446 20.58005713 -54.83693519 18.1632437 -49.75341797 15.74902344 C-48.03298147 14.93147253 -46.31291449 14.11314345 -44.59326172 13.29394531 C-40.40690459 11.29997533 -36.21572494 9.31798173 -32.01269531 7.359375 C-28.66118684 5.79621699 -25.3456358 4.17735757 -22.04199219 2.515625 C-20.46319722 1.74936797 -18.8841081 0.98371663 -17.3046875 0.21875 C-16.59941925 -0.15125122 -15.894151 -0.52125244 -15.16751099 -0.90246582 C-9.31351695 -3.67356056 -5.74673425 -2.62618615 0 0 Z " fill="#303030ff" transform="translate(72,3)"/>
</svg>
